P3
40 40
255
15 21 39 15 21 39 15 21 39 15 21 39 15 21 39 15 21 39 15 21 39 15 21 39 15 21 39 15 21 39 15 21 39 15 21 39 15 21 39 15 21 39 15 21 39 15 21 39 15 21 39 15 21 39 15 21 39 15 21 39 15 21 39 15 21 39 15 21 39 15 21 39 15 21 39 15 21 39 15 21 39 15 21 39 15 21 39 15 21 39 15 21 39 15 21 39 15 21 39 15 21 39 15 21 39 15 21 39 15 21 39 15 21 39 15 21 39 15 21 39
30 42 78 30 42 78 30 42 78 30 42 78 30 42 78 30 42 78 30 42 78 30 42 78 30 42 78 30 42 78 30 42 78 30 42 78 30 42 78 30 42 78 30 42 78 30 42 78 30 42 78 30 42 78 30 42 78 30 42 78 30 42 78 30 42 78 30 42 78 30 42 78 30 42 78 30 42 78 30 42 78 30 42 78 30 42 78 30 42 78 30 42 78 30 42 78 30 42 78 30 42 78 30 42 78 30 42 78 30 42 78 30 42 78 30 42 78 30 42 78
45 63 117 45 63 117 45 63 117 45 63 117 45 63 117 45 63 117 45 63 117 45 63 117 45 63 117 45 63 117 45 63 117 45 63 117 45 63 117 45 63 117 45 63 117 45 63 117 45 63 117 45 63 117 45 63 117 45 63 117 45 63 117 45 63 117 45 63 117 45 63 117 45 63 117 45 63 117 45 63 117 45 63 117 45 63 117 45 63 117 45 63 117 45 63 117 45 63 117 45 63 117 45 63 117 45 63 117 45 63 117 45 63 117 45 63 117 45 63 117
60 84 156 60 84 156 60 84 156 60 84 156 60 84 156 60 84 156 60 84 156 60 84 156 60 84 156 60 84 156 60 84 156 60 84 156 60 84 156 60 84 156 60 84 156 60 84 156 60 84 156 60 84 156 60 84 156 60 84 156 60 84 156 60 84 156 60 84 156 60 84 156 60 84 156 60 84 156 60 84 156 60 84 156 60 84 156 60 84 156 60 84 156 60 84 156 60 84 156 60 84 156 60 84 156 60 84 156 60 84 156 60 84 156 60 84 156 60 84 156
75 105 195 75 105 195 75 105 195 75 105 195 75 105 195 75 105 195 75 105 195 75 105 195 75 105 195 75 105 195 75 105 195 75 105 195 75 105 195 75 105 195 75 105 195 75 105 195 75 105 195 75 105 195 75 105 195 75 105 195 75 105 195 75 105 195 75 105 195 75 105 195 75 105 195 75 105 195 75 105 195 75 105 195 75 105 195 75 105 195 75 105 195 75 105 195 75 105 195 75 105 195 75 105 195 75 105 195 75 105 195 75 105 195 75 105 195 75 105 195
90 126 234 90 126 234 90 126 234 90 126 234 90 126 234 90 126 234 90 126 234 90 126 234 90 126 234 90 126 234 90 126 234 90 126 234 90 126 234 90 126 234 90 126 234 90 126 234 90 126 234 90 126 234 90 126 234 90 126 234 90 126 234 90 126 234 90 126 234 90 126 234 90 126 234 90 126 234 90 126 234 90 126 234 90 126 234 90 126 234 90 126 234 90 126 234 90 126 234 90 126 234 90 126 234 90 126 234 90 126 234 90 126 234 90 126 234 90 126 234
105 147 17 105 147 17 105 147 17 105 147 17 105 147 17 105 147 17 105 147 17 105 147 17 105 147 17 105 147 17 105 147 17 105 147 17 105 147 17 105 147 17 105 147 17 105 147 17 105 147 17 105 147 17 105 147 17 105 147 17 105 147 17 105 147 17 105 147 17 105 147 17 105 147 17 105 147 17 105 147 17 105 147 17 105 147 17 105 147 17 105 147 17 105 147 17 105 147 17 105 147 17 105 147 17 105 147 17 105 147 17 105 147 17 105 147 17 105 147 17
120 168 56 120 168 56 120 168 56 120 168 56 120 168 56 120 168 56 120 168 56 120 168 56 120 168 56 120 168 56 120 168 56 120 168 56 120 168 56 120 168 56 120 168 56 120 168 56 120 168 56 120 168 56 120 168 56 120 168 56 120 168 56 120 168 56 120 168 56 120 168 56 120 168 56 120 168 56 120 168 56 120 168 56 120 168 56 120 168 56 120 168 56 120 168 56 120 168 56 120 168 56 120 168 56 120 168 56 120 168 56 120 168 56 120 168 56 120 168 56
135 189 95 135 189 95 135 189 95 135 189 95 135 189 95 135 189 95 135 189 95 135 189 95 135 189 95 135 189 95 135 189 95 135 189 95 135 189 95 135 189 95 135 189 95 135 189 95 135 189 95 135 189 95 135 189 95 135 189 95 135 189 95 135 189 95 135 189 95 135 189 95 135 189 95 135 189 95 135 189 95 135 189 95 135 189 95 135 189 95 135 189 95 135 189 95 135 189 95 135 189 95 135 189 95 135 189 95 135 189 95 135 189 95 135 189 95 135 189 95
150 210 134 150 210 134 150 210 134 150 210 134 150 210 134 150 210 134 150 210 134 150 210 134 150 210 134 150 210 134 150 210 134 150 210 134 150 210 134 150 210 134 150 210 134 150 210 134 150 210 134 150 210 134 150 210 134 150 210 134 150 210 134 150 210 134 150 210 134 150 210 134 150 210 134 150 210 134 150 210 134 150 210 134 150 210 134 150 210 134 150 210 134 150 210 134 150 210 134 150 210 134 150 210 134 150 210 134 150 210 134 150 210 134 150 210 134 150 210 134
165 231 173 165 231 173 165 231 173 165 231 173 165 231 173 165 231 173 165 231 173 165 231 173 165 231 173 165 231 173 165 231 173 165 231 173 165 231 173 165 231 173 165 231 173 165 231 173 165 231 173 165 231 173 165 231 173 165 231 173 165 231 173 165 231 173 165 231 173 165 231 173 165 231 173 165 231 173 165 231 173 165 231 173 165 231 173 165 231 173 165 231 173 165 231 173 165 231 173 165 231 173 165 231 173 165 231 173 165 231 173 165 231 173 165 231 173 165 231 173
180 252 212 180 252 212 180 252 212 180 252 212 180 252 212 180 252 212 180 252 212 180 252 212 180 252 212 180 252 212 180 252 212 180 252 212 180 252 212 180 252 212 180 252 212 180 252 212 180 252 212 180 252 212 180 252 212 180 252 212 180 252 212 180 252 212 180 252 212 180 252 212 180 252 212 180 252 212 180 252 212 180 252 212 180 252 212 180 252 212 180 252 212 180 252 212 180 252 212 180 252 212 180 252 212 180 252 212 180 252 212 180 252 212 180 252 212 180 252 212
195 17 251 195 17 251 195 17 251 195 17 251 195 17 251 195 17 251 195 17 251 195 17 251 195 17 251 195 17 251 195 17 251 195 17 251 195 17 251 195 17 251 195 17 251 195 17 251 195 17 251 195 17 251 195 17 251 195 17 251 195 17 251 195 17 251 195 17 251 195 17 251 195 17 251 195 17 251 195 17 251 195 17 251 195 17 251 195 17 251 195 17 251 195 17 251 195 17 251 195 17 251 195 17 251 195 17 251 195 17 251 195 17 251 195 17 251 195 17 251
210 38 34 210 38 34 210 38 34 210 38 34 210 38 34 210 38 34 210 38 34 210 38 34 210 38 34 210 38 34 210 38 34 210 38 34 210 38 34 210 38 34 210 38 34 210 38 34 210 38 34 210 38 34 210 38 34 210 38 34 210 38 34 210 38 34 210 38 34 210 38 34 210 38 34 210 38 34 210 38 34 210 38 34 210 38 34 210 38 34 210 38 34 210 38 34 210 38 34 210 38 34 210 38 34 210 38 34 210 38 34 210 38 34 210 38 34 210 38 34
225 59 73 225 59 73 225 59 73 225 59 73 225 59 73 225 59 73 225 59 73 225 59 73 225 59 73 225 59 73 225 59 73 225 59 73 225 59 73 225 59 73 225 59 73 225 59 73 225 59 73 225 59 73 225 59 73 225 59 73 225 59 73 225 59 73 225 59 73 225 59 73 225 59 73 225 59 73 225 59 73 225 59 73 225 59 73 225 59 73 225 59 73 225 59 73 225 59 73 225 59 73 225 59 73 225 59 73 225 59 73 225 59 73 225 59 73 225 59 73
240 80 112 240 80 112 240 80 112 240 80 112 240 80 112 240 80 112 240 80 112 240 80 112 240 80 112 240 80 112 240 80 112 240 80 112 240 80 112 240 80 112 240 80 112 240 80 112 240 80 112 240 80 112 240 80 112 240 80 112 240 80 112 240 80 112 240 80 112 240 80 112 240 80 112 240 80 112 240 80 112 240 80 112 240 80 112 240 80 112 240 80 112 240 80 112 240 80 112 240 80 112 240 80 112 240 80 112 240 80 112 240 80 112 240 80 112 240 80 112
255 101 151 255 101 151 255 101 151 255 101 151 255 101 151 255 101 151 255 101 151 255 101 151 255 101 151 255 101 151 255 101 151 255 101 151 255 101 151 255 101 151 255 101 151 255 101 151 255 101 151 255 101 151 255 101 151 255 101 151 255 101 151 255 101 151 255 101 151 255 101 151 255 101 151 255 101 151 255 101 151 255 101 151 255 101 151 255 101 151 255 101 151 255 101 151 255 101 151 255 101 151 255 101 151 255 101 151 255 101 151 255 101 151 255 101 151 255 101 151
14 122 190 14 122 190 14 122 190 14 122 190 14 122 190 14 122 190 14 122 190 14 122 190 14 122 190 14 122 190 14 122 190 14 122 190 14 122 190 14 122 190 14 122 190 14 122 190 14 122 190 14 122 190 14 122 190 14 122 190 14 122 190 14 122 190 14 122 190 14 122 190 14 122 190 14 122 190 14 122 190 14 122 190 14 122 190 14 122 190 14 122 190 14 122 190 14 122 190 14 122 190 14 122 190 14 122 190 14 122 190 14 122 190 14 122 190 14 122 190
29 143 229 29 143 229 29 143 229 29 143 229 29 143 229 29 143 229 29 143 229 29 143 229 29 143 229 29 143 229 29 143 229 29 143 229 29 143 229 29 143 229 29 143 229 29 143 229 29 143 229 29 143 229 29 143 229 29 143 229 29 143 229 29 143 229 29 143 229 29 143 229 29 143 229 29 143 229 29 143 229 29 143 229 29 143 229 29 143 229 29 143 229 29 143 229 29 143 229 29 143 229 29 143 229 29 143 229 29 143 229 29 143 229 29 143 229 29 143 229
44 164 12 44 164 12 44 164 12 44 164 12 44 164 12 44 164 12 44 164 12 44 164 12 44 164 12 44 164 12 44 164 12 44 164 12 44 164 12 44 164 12 44 164 12 44 164 12 44 164 12 44 164 12 44 164 12 44 164 12 44 164 12 44 164 12 44 164 12 44 164 12 44 164 12 44 164 12 44 164 12 44 164 12 44 164 12 44 164 12 44 164 12 44 164 12 44 164 12 44 164 12 44 164 12 44 164 12 44 164 12 44 164 12 44 164 12 44 164 12
59 185 51 59 185 51 59 185 51 59 185 51 59 185 51 59 185 51 59 185 51 59 185 51 59 185 51 59 185 51 59 185 51 59 185 51 59 185 51 59 185 51 59 185 51 59 185 51 59 185 51 59 185 51 59 185 51 59 185 51 59 185 51 59 185 51 59 185 51 59 185 51 59 185 51 59 185 51 59 185 51 59 185 51 59 185 51 59 185 51 59 185 51 59 185 51 59 185 51 59 185 51 59 185 51 59 185 51 59 185 51 59 185 51 59 185 51 59 185 51
74 206 90 74 206 90 74 206 90 74 206 90 74 206 90 74 206 90 74 206 90 74 206 90 74 206 90 74 206 90 74 206 90 74 206 90 74 206 90 74 206 90 74 206 90 74 206 90 74 206 90 74 206 90 74 206 90 74 206 90 74 206 90 74 206 90 74 206 90 74 206 90 74 206 90 74 206 90 74 206 90 74 206 90 74 206 90 74 206 90 74 206 90 74 206 90 74 206 90 74 206 90 74 206 90 74 206 90 74 206 90 74 206 90 74 206 90 74 206 90
89 227 129 89 227 129 89 227 129 89 227 129 89 227 129 89 227 129 89 227 129 89 227 129 89 227 129 89 227 129 89 227 129 89 227 129 89 227 129 89 227 129 89 227 129 89 227 129 89 227 129 89 227 129 89 227 129 89 227 129 89 227 129 89 227 129 89 227 129 89 227 129 89 227 129 89 227 129 89 227 129 89 227 129 89 227 129 89 227 129 89 227 129 89 227 129 89 227 129 89 227 129 89 227 129 89 227 129 89 227 129 89 227 129 89 227 129 89 227 129
104 248 168 104 248 168 104 248 168 104 248 168 104 248 168 104 248 168 104 248 168 104 248 168 104 248 168 104 248 168 104 248 168 104 248 168 104 248 168 104 248 168 104 248 168 104 248 168 104 248 168 104 248 168 104 248 168 104 248 168 104 248 168 104 248 168 104 248 168 104 248 168 104 248 168 104 248 168 104 248 168 104 248 168 104 248 168 104 248 168 104 248 168 104 248 168 104 248 168 104 248 168 104 248 168 104 248 168 104 248 168 104 248 168 104 248 168 104 248 168
119 13 207 119 13 207 119 13 207 119 13 207 119 13 207 119 13 207 119 13 207 119 13 207 119 13 207 119 13 207 119 13 207 119 13 207 119 13 207 119 13 207 119 13 207 119 13 207 119 13 207 119 13 207 119 13 207 119 13 207 119 13 207 119 13 207 119 13 207 119 13 207 119 13 207 119 13 207 119 13 207 119 13 207 119 13 207 119 13 207 119 13 207 119 13 207 119 13 207 119 13 207 119 13 207 119 13 207 119 13 207 119 13 207 119 13 207 119 13 207
134 34 246 134 34 246 134 34 246 134 34 246 134 34 246 134 34 246 134 34 246 134 34 246 134 34 246 134 34 246 134 34 246 134 34 246 134 34 246 134 34 246 134 34 246 134 34 246 134 34 246 134 34 246 134 34 246 134 34 246 134 34 246 134 34 246 134 34 246 134 34 246 134 34 246 134 34 246 134 34 246 134 34 246 134 34 246 134 34 246 134 34 246 134 34 246 134 34 246 134 34 246 134 34 246 134 34 246 134 34 246 134 34 246 134 34 246 134 34 246
149 55 29 149 55 29 149 55 29 149 55 29 149 55 29 149 55 29 149 55 29 149 55 29 149 55 29 149 55 29 149 55 29 149 55 29 149 55 29 149 55 29 149 55 29 149 55 29 149 55 29 149 55 29 149 55 29 149 55 29 149 55 29 149 55 29 149 55 29 149 55 29 149 55 29 149 55 29 149 55 29 149 55 29 149 55 29 149 55 29 149 55 29 149 55 29 149 55 29 149 55 29 149 55 29 149 55 29 149 55 29 149 55 29 149 55 29 149 55 29
164 76 68 164 76 68 164 76 68 164 76 68 164 76 68 164 76 68 164 76 68 164 76 68 164 76 68 164 76 68 164 76 68 164 76 68 164 76 68 164 76 68 164 76 68 164 76 68 164 76 68 164 76 68 164 76 68 164 76 68 164 76 68 164 76 68 164 76 68 164 76 68 164 76 68 164 76 68 164 76 68 164 76 68 164 76 68 164 76 68 164 76 68 164 76 68 164 76 68 164 76 68 164 76 68 164 76 68 164 76 68 164 76 68 164 76 68 164 76 68
179 97 107 179 97 107 179 97 107 179 97 107 179 97 107 179 97 107 179 97 107 179 97 107 179 97 107 179 97 107 179 97 107 179 97 107 179 97 107 179 97 107 179 97 107 179 97 107 179 97 107 179 97 107 179 97 107 179 97 107 179 97 107 179 97 107 179 97 107 179 97 107 179 97 107 179 97 107 179 97 107 179 97 107 179 97 107 179 97 107 179 97 107 179 97 107 179 97 107 179 97 107 179 97 107 179 97 107 179 97 107 179 97 107 179 97 107 179 97 107
194 118 146 194 118 146 194 118 146 194 118 146 194 118 146 194 118 146 194 118 146 194 118 146 194 118 146 194 118 146 194 118 146 194 118 146 194 118 146 194 118 146 194 118 146 194 118 146 194 118 146 194 118 146 194 118 146 194 118 146 194 118 146 194 118 146 194 118 146 194 118 146 194 118 146 194 118 146 194 118 146 194 118 146 194 118 146 194 118 146 194 118 146 194 118 146 194 118 146 194 118 146 194 118 146 194 118 146 194 118 146 194 118 146 194 118 146 194 118 146
209 139 185 209 139 185 209 139 185 209 139 185 209 139 185 209 139 185 209 139 185 209 139 185 209 139 185 209 139 185 209 139 185 209 139 185 209 139 185 209 139 185 209 139 185 209 139 185 209 139 185 209 139 185 209 139 185 209 139 185 209 139 185 209 139 185 209 139 185 209 139 185 209 139 185 209 139 185 209 139 185 209 139 185 209 139 185 209 139 185 209 139 185 209 139 185 209 139 185 209 139 185 209 139 185 209 139 185 209 139 185 209 139 185 209 139 185 209 139 185
224 160 224 224 160 224 224 160 224 224 160 224 224 160 224 224 160 224 224 160 224 224 160 224 224 160 224 224 160 224 224 160 224 224 160 224 224 160 224 224 160 224 224 160 224 224 160 224 224 160 224 224 160 224 224 160 224 224 160 224 224 160 224 224 160 224 224 160 224 224 160 224 224 160 224 224 160 224 224 160 224 224 160 224 224 160 224 224 160 224 224 160 224 224 160 224 224 160 224 224 160 224 224 160 224 224 160 224 224 160 224 224 160 224 224 160 224 224 160 224
239 181 7 239 181 7 239 181 7 239 181 7 239 181 7 239 181 7 239 181 7 239 181 7 239 181 7 239 181 7 239 181 7 239 181 7 239 181 7 239 181 7 239 181 7 239 181 7 239 181 7 239 181 7 239 181 7 239 181 7 239 181 7 239 181 7 239 181 7 239 181 7 239 181 7 239 181 7 239 181 7 239 181 7 239 181 7 239 181 7 239 181 7 239 181 7 239 181 7 239 181 7 239 181 7 239 181 7 239 181 7 239 181 7 239 181 7 239 181 7
254 202 46 254 202 46 254 202 46 254 202 46 254 202 46 254 202 46 254 202 46 254 202 46 254 202 46 254 202 46 254 202 46 254 202 46 254 202 46 254 202 46 254 202 46 254 202 46 254 202 46 254 202 46 254 202 46 254 202 46 254 202 46 254 202 46 254 202 46 254 202 46 254 202 46 254 202 46 254 202 46 254 202 46 254 202 46 254 202 46 254 202 46 254 202 46 254 202 46 254 202 46 254 202 46 254 202 46 254 202 46 254 202 46 254 202 46 254 202 46
13 223 85 13 223 85 13 223 85 13 223 85 13 223 85 13 223 85 13 223 85 13 223 85 13 223 85 13 223 85 13 223 85 13 223 85 13 223 85 13 223 85 13 223 85 13 223 85 13 223 85 13 223 85 13 223 85 13 223 85 13 223 85 13 223 85 13 223 85 13 223 85 13 223 85 13 223 85 13 223 85 13 223 85 13 223 85 13 223 85 13 223 85 13 223 85 13 223 85 13 223 85 13 223 85 13 223 85 13 223 85 13 223 85 13 223 85 13 223 85
28 244 124 28 244 124 28 244 124 28 244 124 28 244 124 28 244 124 28 244 124 28 244 124 28 244 124 28 244 124 28 244 124 28 244 124 28 244 124 28 244 124 28 244 124 28 244 124 28 244 124 28 244 124 28 244 124 28 244 124 28 244 124 28 244 124 28 244 124 28 244 124 28 244 124 28 244 124 28 244 124 28 244 124 28 244 124 28 244 124 28 244 124 28 244 124 28 244 124 28 244 124 28 244 124 28 244 124 28 244 124 28 244 124 28 244 124 28 244 124
43 9 163 43 9 163 43 9 163 43 9 163 43 9 163 43 9 163 43 9 163 43 9 163 43 9 163 43 9 163 43 9 163 43 9 163 43 9 163 43 9 163 43 9 163 43 9 163 43 9 163 43 9 163 43 9 163 43 9 163 43 9 163 43 9 163 43 9 163 43 9 163 43 9 163 43 9 163 43 9 163 43 9 163 43 9 163 43 9 163 43 9 163 43 9 163 43 9 163 43 9 163 43 9 163 43 9 163 43 9 163 43 9 163 43 9 163 43 9 163
58 30 202 58 30 202 58 30 202 58 30 202 58 30 202 58 30 202 58 30 202 58 30 202 58 30 202 58 30 202 58 30 202 58 30 202 58 30 202 58 30 202 58 30 202 58 30 202 58 30 202 58 30 202 58 30 202 58 30 202 58 30 202 58 30 202 58 30 202 58 30 202 58 30 202 58 30 202 58 30 202 58 30 202 58 30 202 58 30 202 58 30 202 58 30 202 58 30 202 58 30 202 58 30 202 58 30 202 58 30 202 58 30 202 58 30 202 58 30 202
73 51 241 73 51 241 73 51 241 73 51 241 73 51 241 73 51 241 73 51 241 73 51 241 73 51 241 73 51 241 73 51 241 73 51 241 73 51 241 73 51 241 73 51 241 73 51 241 73 51 241 73 51 241 73 51 241 73 51 241 73 51 241 73 51 241 73 51 241 73 51 241 73 51 241 73 51 241 73 51 241 73 51 241 73 51 241 73 51 241 73 51 241 73 51 241 73 51 241 73 51 241 73 51 241 73 51 241 73 51 241 73 51 241 73 51 241 73 51 241
88 72 24 88 72 24 88 72 24 88 72 24 88 72 24 88 72 24 88 72 24 88 72 24 88 72 24 88 72 24 88 72 24 88 72 24 88 72 24 88 72 24 88 72 24 88 72 24 88 72 24 88 72 24 88 72 24 88 72 24 88 72 24 88 72 24 88 72 24 88 72 24 88 72 24 88 72 24 88 72 24 88 72 24 88 72 24 88 72 24 88 72 24 88 72 24 88 72 24 88 72 24 88 72 24 88 72 24 88 72 24 88 72 24 88 72 24 88 72 24
